<?xml version="1.0" encoding="UTF-8"?>
<svg id="Ebene_1" data-name="Ebene 1" xmlns="http://www.w3.org/2000/svg" viewBox="0 0 302.18 300">
  <defs>
    <style>
      .cls-1 {
        stroke-width: 0px;
        fill: white;
      }
    </style>
  </defs>
  <g id="j0Qfoc.tif">
    <path class="cls-1" d="M78.15,129.81h5.18c64.17,0,128.35-.01,192.52.01,13.48,0,22.67,10.04,21.17,22.92-1.11,9.51-9.13,17.01-18.82,17.56-1.62.09-3.24.05-4.86.05-63.77,0-127.54,0-191.31,0h-5.49c1.88,1.76,3,2.82,4.13,3.87,20.11,18.65,40.24,37.27,60.32,55.95,10.01,9.3,9.96,23.42-.02,31.52-8.06,6.54-19.18,5.93-27.29-1.58-25.97-24.05-51.91-48.13-77.86-72.2-7.92-7.35-15.87-14.68-23.75-22.07-10.24-9.6-10.15-22.32.32-31.79,34.56-31.27,69.17-62.49,103.77-93.71,9.41-8.49,21.82-8.44,29.67.03,8.03,8.66,7.16,21.26-2.3,29.85-20.7,18.8-41.5,37.49-62.24,56.25-.96.87-1.79,1.88-3.15,3.34Z"/>
  </g>
</svg>
