<?xml version="1.0" encoding="UTF-8"?>
<svg id="Ebene_1" data-name="Ebene 1" xmlns="http://www.w3.org/2000/svg" viewBox="0 0 302.18 300.47">
  <defs>
    <style>
      .cls-1 {
        stroke-width: 0px;
        fill: white;
      }
    </style>
  </defs>
  <g id="P5fWQI.tif">
    <g>
      <path class="cls-1" d="M142.87,7c7.84,1.87,15.68,3.76,23.53,5.6,6.61,1.55,13.24,2.99,19.84,4.57,13.56,3.24,21,15.37,17.93,29.12-.22.99-.43,1.97-.71,3.3,4.62,1.09,9.1,2.15,13.59,3.19,8.88,2.05,17.77,4.05,26.63,6.14,14.51,3.43,21.93,15.42,18.57,29.9-1.03,4.44-2.08,8.87-3.09,13.32-1.49,6.55-2.73,7.46-9.61,6.73-.54,5.44-1.09,10.88-1.61,16.32-2,20.85-3.99,41.7-5.97,62.55-1.76,18.53-3.5,37.07-5.25,55.61-.95,10.01-1.79,20.03-2.88,30.02-1.27,11.61-10.43,19.79-22.17,19.81-42.65.05-85.29.04-127.94,0-12.32-.01-21.28-8.67-22.43-21.12-2.5-26.97-5.13-53.93-7.69-80.9-2.14-22.52-4.24-45.04-6.37-67.56-.63-6.67-1.27-13.34-1.97-20.01-.51-4.84,1.66-7.42,6.61-7.45,11.73-.06,23.46-.02,35.2-.02,33.99,0,67.97,0,101.96,0h3.28c.03-.21.05-.42.08-.62-5.82-1.35-11.63-2.72-17.45-4.06-42.5-9.75-84.99-19.5-127.49-29.25-5.14-1.18-6.55-3.5-5.35-8.72,1.15-4.98,2.27-9.97,3.44-14.95,3.34-14.15,15.39-21.64,29.52-18.38,13.31,3.07,26.63,6.12,40.27,9.25.33-1.25.67-2.46.98-3.68,2.43-9.78,8.53-15.84,18.31-18.22.34-.08.64-.32.96-.49,2.42,0,4.84,0,7.26,0ZM56.93,107.46c.79,8.48,1.53,16.62,2.31,24.77,2.15,22.43,4.33,44.86,6.46,67.29,2.29,24.1,4.53,48.2,6.84,72.3.59,6.17,5,10.18,11.22,10.18,42.56.03,85.12.02,127.69,0,6.5,0,10.77-4.13,11.36-10.62.96-10.57,2-21.13,3.01-31.7,1.78-18.63,3.56-37.26,5.34-55.89,1.79-18.72,3.58-37.45,5.36-56.17.63-6.66,1.25-13.32,1.88-20.16H56.93ZM248.86,96.97c.83-3.52,1.64-6.85,2.39-10.19,2.09-9.39-1.48-15.02-10.92-17.19-35.06-8.05-70.12-16.1-105.18-24.15-21.2-4.87-42.39-9.77-63.6-14.6-5.92-1.35-12,1.43-14.01,6.92-1.68,4.56-2.51,9.43-3.76,14.37,65.24,14.99,130.07,29.89,195.09,44.84ZM192.42,47.09c.39-1.58.76-2.91,1.04-4.26,1.38-6.64-2.41-12.97-9.02-14.54-14.28-3.4-28.58-6.71-42.91-9.86-7.95-1.75-15.48,5.38-14.6,13.63,21.68,4.98,43.4,9.96,65.49,15.03Z"/>
      <path class="cls-1" d="M108.55,202.4c.7,14.04,1.76,35.52,2.82,57,.07,1.39.16,2.79.18,4.19.07,4.02-2.09,6.63-5.49,6.67-3.27.04-5.49-2.42-5.68-6.27-.31-6.23-.66-12.46-.96-18.69-1.57-32.55-3.12-65.1-4.68-97.65-.35-7.35-.77-14.69-1.06-22.04-.15-3.89,1.98-6.39,5.3-6.5,3.33-.11,5.65,2.26,5.84,6.1,1.14,23.25,2.25,46.5,3.73,77.19Z"/>
      <path class="cls-1" d="M198.35,194.7c-1.15,23.06-2.29,46.12-3.44,69.18-.2,4.07-2.46,6.53-5.82,6.38-3.36-.15-5.53-2.84-5.33-6.84,1.37-28.08,2.79-56.16,4.17-84.25.84-17.11,1.64-34.22,2.47-51.33.07-1.39.07-2.81.34-4.16.61-3.08,3.05-4.84,6.06-4.51,2.83.31,4.91,2.47,4.84,5.5-.16,6.42-.47,12.84-.78,19.26-.83,16.92-1.69,33.85-2.54,50.77h.04Z"/>
      <path class="cls-1" d="M142.11,194.58c0-22.43,0-44.87,0-67.3,0-1.21-.03-2.43.15-3.62.37-2.52,2.41-4.32,4.94-4.52,2.66-.21,5.05,1.34,5.71,3.9.3,1.15.35,2.39.35,3.59.02,45.33.01,90.66.01,135.99,0,.65.02,1.31-.03,1.95-.3,3.45-2.59,5.74-5.69,5.68-3.12-.05-5.39-2.37-5.42-5.87-.08-8.94-.04-17.87-.04-26.81,0-14.33,0-28.67,0-43Z"/>
    </g>
  </g>
</svg>
