<?xml version="1.0" encoding="UTF-8"?>
<svg id="Ebene_1" data-name="Ebene 1" xmlns="http://www.w3.org/2000/svg" viewBox="0 0 302.18 300">
  <defs>
    <style>
      .cls-1 {
        stroke-width: 0px;
        fill: white;
      }
    </style>
  </defs>
  <g id="NoKkrZ.tif">
    <g>
      <path class="cls-1" d="M300.18,117.83c-.66,4.1-1.2,8.23-2.02,12.31-3.63,18.08-12.1,33.84-23.33,48.27-12.59,16.17-27.54,30.05-42.73,43.65-15.26,13.66-30.76,27.06-46.17,40.56-1.09.96-2.25,1.85-3.45,2.67-3.13,2.12-6.31,2.28-9.5.1-3.13-2.14-4.57-5.62-3.64-9.41,2.67-10.92,5.38-21.84,8.19-32.72.5-1.92.22-3.19-1.24-4.61-7.83-7.68-15.56-15.47-23.32-23.23-4.69-4.69-4.67-9.49.03-14.19,9.2-9.19,18.41-18.38,28.6-28.55-1.1-.57-2.25-.87-2.99-1.6-9.93-9.84-19.76-19.79-29.73-29.6-3.56-3.5-4.4-7.19-2.52-11.84,9.3-23,18.53-46.03,27.67-69.1,1.27-3.19,3.39-5.26,6.22-6.98,39.15-23.72,99.06-11.24,115.73,46.62,1.81,6.29,2.46,12.92,3.66,19.4.16.85.35,1.69.52,2.53v15.73Z"/>
      <path class="cls-1" d="M120.76,188.64c1.15.87,2.08,1.43,2.83,2.18,10.32,10.28,20.6,20.6,30.93,30.87,2.5,2.49,3.94,5.29,3.05,8.88-3.27,13.17-6.45,26.37-9.89,39.49-1.87,7.12-9,8.98-14.9,4.02-9.88-8.31-19.73-16.66-29.5-25.11-18.51-16-37.21-31.78-55.34-48.2-13.28-12.02-25.21-25.47-33.51-41.51C-3.2,125.2-3.75,90.73,16.15,57.71,32.21,31.08,57.56,20.24,88.31,22.78c23.1,1.91,41.56,12.81,55.77,31.07,2.76,3.54,3.07,7.05,1.42,11.13-7.1,17.52-14.03,35.1-21.17,52.6-.93,2.28-.56,3.59,1.14,5.25,7.92,7.74,15.71,15.6,23.52,23.45,4.69,4.7,4.69,9.49-.02,14.2-9.19,9.2-18.41,18.38-28.21,28.16Z"/>
    </g>
  </g>
</svg>
