<?xml version="1.0" encoding="UTF-8"?>
<svg id="Ebene_1" data-name="Ebene 1" xmlns="http://www.w3.org/2000/svg" viewBox="0 0 302.18 300">
  <defs>
    <style>
      .cls-1 {
        stroke-width: 0px;
        fill: white;
      }
    </style>
  </defs>
  <path class="cls-1" d="M57.2,247.75c3.64-5.41,7.67-10.12,10.28-15.52,5.56-11.5,5.4-23.31.25-35.13-5.54-12.73-13.01-24.26-21.33-35.24-6.86-9.06-15.73-13.15-27.93-9.15.33-18.1,2.94-35.23,9.34-51.55,14.22-36.2,38.94-63.03,74.43-78.8,66.06-29.34,142.61-5.13,179.43,57.44,37.58,63.88,19.35,146.01-41.65,188-58.27,40.11-137.99,30.85-182.81-20.04h0ZM156.02,204.5c-6.32-.07-16.13,1.73-24.81,6.87-6.27,3.71-12.04,8.45-17.45,13.37-3.69,3.35-3.3,9.29-.24,12.5,3.49,3.65,7.88,3.94,12.34.67,1.53-1.12,2.94-2.43,4.27-3.79,15.13-15.42,42.9-14.8,56.3-2.7,2.64,2.38,5.32,4.74,8.16,6.88,3.49,2.64,6.66,2.57,10.2.14,5.12-3.51,5.47-9.77.49-14.86-12.46-12.74-27.67-19.07-49.27-19.08h0ZM62.7,125.01c-.11,5.98,4.89,9.8,11.27,8.52,10.91-2.18,21.47-5.37,31.04-11.23,8.41-5.15,16.29-10.99,22.14-19.09,2.89-3.99,2.32-8.06-1.14-11.32-3.24-3.06-7.36-3.37-11.11-.55-2.54,1.91-4.94,4.03-7.25,6.22-10.49,9.94-22.94,15.86-37.09,18.34-5.26.93-7.78,3.78-7.88,9.1h0ZM248.38,134.48c4.76-.74,8.58-4.2,8.95-8.61.42-4.91-2.73-9.06-7.57-9.9-8.33-1.43-16.56-3.52-23.59-8.28-7.13-4.83-13.69-10.53-20.52-15.81-5.72-4.43-11.73-2.62-14.24,4.19-1.38,3.73.59,6.51,2.69,9.03,8.69,10.37,19.57,17.87,32.05,22.78,7.16,2.82,14.8,4.45,22.22,6.62h0ZM115.77,177.95c9.79-.05,17.66-7.97,17.64-17.75-.03-9.81-8.33-18.1-18.03-17.97-10.12.13-17.7,7.95-17.61,18.17.1,10.37,7.5,17.6,17.99,17.55h0ZM204.01,177.95c9.83.03,17.81-7.74,17.93-17.48.12-9.71-8.17-18.23-17.78-18.24-10.22-.02-17.62,7.47-17.7,17.91-.08,10.58,7.01,17.79,17.56,17.82h0Z"/>
  <path class="cls-1" d="M27.9,239.6c-14.23.36-26.36-10.57-26.88-24.76-.27-7.36,3.14-13.91,6.82-20.01,4.47-7.41,9.47-14.51,14.39-21.63,3.53-5.1,6.27-5.3,9.6-.23,6.55,9.99,13.51,19.85,18.79,30.51,8.05,16.25-2.78,35.81-22.74,36.13h0Z"/>
</svg>
