<?xml version="1.0" encoding="UTF-8"?>
<svg id="Ebene_1" data-name="Ebene 1" xmlns="http://www.w3.org/2000/svg" viewBox="0 0 302.18 300.47">
  <defs>
    <style>
      .cls-1 {
        stroke-width: 0px;
      }
    </style>
  </defs>
  <g id="Z9PCS7">
    <g>
      <path class="cls-1" d="M230.62,180.45c-3.47-3.87-5.65-4.64-9.37-3.21-2.33.89-3.67,2.75-4.17,5.11-.46,2.2.83,3.72,3.08,3.96,4.27.46,7.26,3.32,7.79,7.63.16,1.28.41,2.24,1.8,2.67,3.36,1.06,5.39,3.58,6.59,6.71.56,1.48,1.36,1.69,2.78,1.83,3.79.39,6-1.38,7.78-4.49,2.46-4.29,6.26-6.3,11.3-5.87.68.06,1.59-.37,2.1-.87,5.44-5.38,15.16-3.1,17.49,4.15.22.67.56,1.49.37,2.07-.88,2.65.47,4.35,1.92,6.41,3.71,5.24,2.21,12.98-2.88,16.8-5.39,4.03-12.07,3.33-16.67-1.67-.51-.56-1.38-1.06-2.11-1.1-6.44-.36-10.64-3.58-12.66-9.86-.04-.14-.19-.24-.19-.25-2.36.13-4.64.34-6.91.33-1.31,0-1.99.29-2.31,1.68-.28,1.19-1.03,2.27-1.28,2.79,2.14,1.98,4.3,3.65,6.04,5.67,1.7,1.98,1.77,4.44,1.07,6.99-.26.95-.23,2.19.16,3.07,2.24,5.05,1.6,10.55-2.16,14.35-3.67,3.71-8.09,4.3-12.92,2.48-.61-.23-1.49-.36-2.01-.09-6.21,3.19-14.3-.47-16.63-8.36-2.09.55-4.18,1.11-6.49,1.72.15,3.18-.99,6.11-3.3,8.6-3.14,3.39-7.3,4.16-11.47,2.2-.63-.3-1.66-.4-2.21-.08-4.25,2.43-8.57,2.53-12.59-.1-4.47-2.93-6.26-7.39-5.79-12.71.07-.77.26-1.52.44-2.58-4.74.58-9.04.12-12.5-3.55-3.18,3.12-6.8,4.34-11.11,3.02-.47-.14-1.19.19-1.67.5-4.91,3.26-10.92,3.11-15.21-.43-5.03-4.15-6.37-9.49-3.84-15.25.06-.14.08-.3.24-.97-37.35-13-74.75-26.01-112.76-39.24h24.89c-7.33-12.13-14.27-23.6-21.47-35.51,3.56-3.41,7.06-6.72,10.5-10.08,16.75-16.38,33.47-32.78,50.22-49.16,5.49-5.37,11-10.72,16.58-15.99.93-.88,2.17-1.6,3.39-1.99,35.74-11.22,71.5-22.37,107.26-33.56,4.13-1.29,8.23-2.68,13.06-4.26-4.1,4.07-5.11,8.97-6.62,13.65-1.96,6.08-6.51,9.77-11.98,12.51-7.75,3.88-14.38,9.03-18.3,16.97-1.46,2.95-2.59,6.15-3.32,9.36-1.65,7.24-6.02,11.87-12.84,14.36-7.61,2.77-14.25,6.89-19.04,13.57-8.31,11.59-8.9,24.09-3.78,36.99,1.55,3.91,4.16,7.41,6.35,11.2-1.5,1.68-3.54,3.47-4.97,5.67-5.28,8.07-4.4,16.48-.4,24.65,2.07,4.21,5.03,7.99,7.81,12.29,4.02-4.51,8.66-4.86,13.58-3.68.43-.96.75-1.67.81-1.8,2.89.22,5.56.76,8.14.48,1.33-.14,2.75-1.54,3.69-2.71,1.99-2.5,1.58-7.21-.58-10.02-2.31-3.01-5.76-3.77-10.04-2.24-1.12-1.88-2.1-3.86-3.39-5.62-2.37-3.25-5.82-4.3-8.93-2.97-3.1,1.33-4.32,4.16-3.62,8.36.1.61.16,1.23,0,1.89-1.57-3.36-2.56-6.85-1.53-10.56,1.23-4.42,4.88-5.18,8.06-5.19,1.38-3.53,2.5-6.67,3.82-9.72,1.66-3.84,1.42-7.21-.87-9.52-2.27-2.29-4.67-2.59-8.71-.86-.96-2.9-2.12-5.72-2.83-8.65-3.3-13.68,2.31-25.5,14.96-31.71,2.84-1.4,5.79-2.57,8.62-3.98,6.34-3.15,10.7-8.02,12.64-14.93.6-2.13,1.25-4.25,1.9-6.37,2.27-7.35,6.94-12.69,13.74-16.19,6.09-3.14,12.17-6.38,15.63-12.65,1.85-3.36,3.12-7.05,4.63-10.6.75-1.77,1.44-3.57,2.48-5.4,5.11,15.67,13.46,28.14,30.56,32.9-6.75,6.13-10.03,13.5-9.51,22.32.52,8.76,4.71,15.63,11.84,21.1-5.06,5.27-8.24,11.3-8.56,18.59-.32,7.37,2.07,13.68,7.8,18.9-8.79,4.75-14.43,11.76-17.36,21.21,4.07.49,8.15,1,10.54,4.59,1.21,1.82,2.15,4.12,2.34,6.28.46,5.12-2.61,8.9-7.36,10.26-1.34-2.08-2.61-4.05-4-6.2.65.1,1.44.2,2.23.34,3.39.63,5.8-1.85,5.15-5.31-.59-3.15-2.96-5.5-6-5.94-2.95-.43-4.89.93-6.87,4.94ZM204.04,41.06c-3.69,1.11-6.93,2.08-10.16,3.06-27.18,8.25-54.35,16.51-81.53,24.73-5.53,1.67-11.09,3.24-16.67,4.71-3.18.84-5.34,3.02-7.51,5.2-2.63,2.65-5.13,5.42-7.8,8.26,1.18-.35,2.29-.71,3.41-1.01,28.7-7.78,57.41-15.52,86.1-23.33,6.68-1.82,13.73-2.57,19.31-7.5,2.2-1.94,5.25-2.88,7.86-4.37,3.61-2.06,5.98-5.07,6.99-9.75ZM48.6,117.22c.09.21.18.41.28.62,5.41-1.04,10.82-2.12,16.24-3.13,25.18-4.7,50.36-9.41,75.56-14.02,4.11-.75,8.3-.97,11.55-4.15.75-.74,1.93-1.06,2.94-1.51,2.6-1.16,5.25-2.22,7.81-3.46,3.67-1.76,6.17-4.5,6.99-9-1.19.21-2.1.34-3,.53-12.89,2.87-25.78,5.73-38.66,8.63-22.53,5.07-45.05,10.16-67.57,15.26-.68.15-1.49.29-1.98.72-3.43,3.13-6.78,6.33-10.16,9.51ZM22.97,141.84c8.54,2.17,16.74,4.24,24.93,6.35,26.87,6.91,53.75,13.82,80.62,20.75,3.61.93,3.44.88,5.18-2.28,1.28-2.32,3.06-4.36,4.62-6.52.25-.35.51-.7.85-1.17-.7-.28-1.19-.54-1.71-.66-9.16-2.12-18.29-4.36-27.5-6.28-18.1-3.78-36.21-7.53-54.37-11-8.6-1.64-17.32-2.66-26.01-3.86-.9-.12-2.09.2-2.8.76-1.34,1.06-2.43,2.45-3.82,3.91ZM33.2,167.7c1.99,3.39,3.93,6.81,6.02,10.14.5.79,1.45,1.49,2.34,1.8,12.71,4.41,25.44,8.75,38.16,13.1,15.12,5.17,30.24,10.35,45.39,15.46.89.3,2.41.46,2.9-.04,3.86-3.92,8.24-5.04,13.46-3.29.51.17,1.3-.47,1.96-.74-.06-.34-.13-.69-.19-1.03-36.34-12.69-73.19-23.79-110.04-35.41ZM132.68,118.02c-.63,0-1.25-.05-1.86,0-14.33,1.32-28.66,2.65-42.99,3.98-15.04,1.39-30.07,2.93-45.13,4.11-5.25.41-6.94,4.71-10.65,7.57,33.47-1.25,66.22-2.47,98.84-3.69.62-4.14,1.2-8.01,1.8-11.98ZM195.9,192.09q2.17-2.87,5.36-3c2.94-.12,5.16-2.41,5.22-5.39.07-3.34-1.79-5.38-4.96-5.82-.8-.11-1.73-.87-2.19-1.59-2.83-4.43-7.78-5.3-10.9-1.54-1.51,1.82-2.92,2.88-5.38,3.03-2.68.17-4.64,3.53-4.27,6.47.44,3.4,2.24,5.13,5.51,4.75,2.34-.28,3.06,1.35,4.55,2.82-1.38.07-2.42-.05-3.36.21-1.18.32-2.57.67-3.35,1.49-2.16,2.28-2.11,5.74-.09,8,2.08,2.32,5.48,3.35,8.06,1.37,1.94-1.49,4.14-1.68,6.5-.61,3.5,1.58,4.32,1.21,6.14-2.19,2.12-3.96-.25-7.99-4.7-8-.66,0-1.32,0-2.15,0ZM152.73,127.97c-2.38,2.3-2.71,5.05-1.54,7.74,1.43,3.29,4.21,4.77,7.88,4.21,1.22,3.76,3.41,6.33,7.5,6.27,3.13-.05,5.76-1.44,7.05-4.41,1.78-4.09.82-7.67-2.99-10.59,3.59.62,5.48-.23,6.51-2.73.98-2.37.24-5.3-2.05-6.68-1.29-.78-3.07-1.57-4.39-1.28-2.12.47-4.05,1.84-6.02,2.81-1.49-4.1-3.82-6.08-7.46-6.04-3.05.03-5.43,1.65-6.44,4.35-.95,2.56-.43,4.37,1.96,6.35ZM226.04,242.46c5.22,3.09,9.45,2.56,12.14-1.49,1.56-2.33,1.48-4.72.37-7.22-1.12-2.51-3.02-3.96-5.24-4.05,1.38-.78,3.25-1.28,4.2-2.49,1.58-2.04.98-4.59-.86-6.19-1.95-1.7-4.74-1.98-6.78-.29-1.45,1.2-2.53,2.83-3.78,4.28-.54-.85-1.02-1.77-1.66-2.56-.69-.85-1.43-1.71-2.32-2.32-1.97-1.35-4.82-1.12-6.64.45-1.73,1.5-2.15,3.37-1.53,5.59.73,2.6,2.43,3.27,4.88,2.79.18-.04.39.12,1.04.34-3.9.75-6.28,2.68-6.73,6.35-.41,3.3,1.01,5.95,3.72,7.7,3.19,2.06,6.33,1.35,9.19-.87ZM261.72,200.41c-3.1-2.44-6.73-2.32-9.76.23-2.91,2.43-3.47,7.31-1.28,11.12,2.2,3.83,5.72,4.8,10.92,3.01,3.67,5.98,5.85,7.28,10.27,6.11,3.66-.97,5.97-4,6.01-7.86.04-4-1.65-5.74-7.05-7.31,3.04-2.57,3.86-4.5,2.96-6.95-.8-2.2-3.12-3.81-5.81-3.78-3.51.04-5.44,2.13-6.26,5.43ZM134.14,218.26c-5.46.95-7.35,2.43-7.9,6-.6,3.91,1.31,7.56,4.81,9.19,3.88,1.81,6.66.91,10.79-3.49,4.43,2.39,7.25,2.32,9.92-.27,2.61-2.52,3.47-7.03,1.52-10.04-.92-1.43-2.46-2.83-4.02-3.4-1.6-.58-3.58-.13-5.37-.13.9-3.63-.31-6.68-3.27-7.97-2.98-1.31-6.93-.27-8.49,2.23-1.57,2.53-.94,5.2,2.01,7.87ZM179.04,161.36c3.92-3.11,4.48-5.06,2.86-8.2-1.34-2.58-4.35-3.86-7.29-2.76-1.4.53-3.09,1.45-3.69,2.67-.84,1.7-.77,3.84-1.08,5.74-3.07-1.06-6.23-.45-8.31,1.86-2.11,2.34-2.62,4.96-1.31,7.89,1.61,3.59,3.92,5.01,7.73,5.08.89.02,2.01.61,2.6,1.3,2.51,2.95,5.13,2.88,7.95.26,1.63-1.51,3.91-2.52,6.08-3.21,1.96-.63,3.13-1.48,2.97-3.59-.06-.85-.31-1.7-.61-2.5-1.23-3.37-3.72-4.9-7.9-4.55ZM204.03,206.99c1.03,2.34,2.8,4.35,1.62,7.03-.09.2.44.79.79,1.04,1.71,1.24,3.46,2.43,5.21,3.65.36-.26.65-.4.86-.63,3.75-3.96,8.01-4.74,12.88-2.16.5.26,1.24.33,1.78.18,5.23-1.39,7.34-8.44,4.02-12.7-2.36-3.02-5.16-3.44-8.58-2.15,1.25-3.76.42-7.1-2.01-8.64-2.73-1.73-6.39-1.52-8.41,1-1.08,1.34-1.86,3.41-1.76,5.09.11,1.74,1.44,3.41,2.31,5.26-3.41-.96-6.12.6-8.7,3.02ZM190.02,233.09c1.24-3.64.59-6.08-1.99-7.84-2.21-1.52-5.42-1.49-7.33.06-2.48,2.01-2.81,4.31-1.14,8.01-5.13-.12-7.16.95-8.31,4.38-1.18,3.53.44,8.18,3.58,10.28,2.94,1.97,6.64,1.33,10.59-1.84,3.58,2.72,6.51,3.13,9.37,1.31,2.87-1.83,4.23-5.57,3.24-9.48-1.04-4.1-4.02-5.37-8.01-4.88ZM212.79,164.22c4.15-1.07,5.86-3.07,5.64-6.34-.19-2.77-2.64-5.71-5.4-5.74-1.75-.02-3.87.54-5.16,1.63-1.34,1.13-1.87,3.21-2.57,4.52-1.31-.84-2.67-2.18-4.28-2.65-3-.87-5.61.32-7.56,2.73-2.11,2.61-1.77,5.61-1.08,8.6.06.25.37.56.63.63,2.9.82,5.82,1.59,9.15,2.49,1.56,2.18,3.5,4.95,5.51,7.67.34.45.95.88,1.5.98,4.01.74,8.22-2.55,8.61-6.62.37-3.8-1.5-6.28-4.99-7.89ZM156.65,217.04c2.08,3.06,2.51,5.19,1.85,9.19-.58,3.49.21,4.61,3.71,5.26,3.62.67,7.85-1.41,9.32-5.01.75-1.83,1.3-4.09.92-5.95-.36-1.74-2.07-3.21-3.18-4.8.59.12,1.46.3,2.33.49,1.8.38,3.34.04,4.23-1.72,1.46-2.89-.34-6.97-3.45-7.91-2.99-.91-5.49.06-7.72,2.32-.28-1.03-.44-1.8-.7-2.54-1.4-3.94-5.08-5.88-9.07-4.82-2.26.6-3.91,2.49-4.1,4.66-.2,2.31,1.96,1.92,3.09,2.53,3.96,2.12,4.95,4.84,2.76,8.3ZM190.4,140.72c-.76-.1-1.44-.21-2.13-.27-3.16-.25-6.23,1.5-7.23,4.29-.19.54.04,1.69.43,1.92,3.66,2.06,6.07,4.96,6.85,9.16.08.42.43.79.82,1.48,3.17-4.87,7.49-5.96,12.7-4.7.59.14,1.46-.56,2.11-1.01,1.41-.98,2.65-2.26,4.17-3.02,2.39-1.2,3.03-2.09,1.52-4.33-1.08-1.6-2.77-3.03-4.51-3.87-1.25-.61-3.04-.12-4.65-.12,1.93-4.1,1.58-7.05-1.01-9.08-2.31-1.82-5.89-1.82-8.16-.01-2.63,2.1-2.97,5.35-.93,9.56ZM198.56,217.21c2.62-3.43,2.87-6.24.86-8.63-1.91-2.27-5.6-3.01-8.22-1.64-2.97,1.55-3.78,4.48-2.52,9.48-2.39-1.76-4.77-1.88-7.06-.21-1.98,1.44-2.86,3.44-2.69,6.01,7.53-4.26,14.8.43,15.82,6.99.4,2.59,3.12,4.56,5.73,4.23,3.72-.47,7.01-4.62,6.92-8.74-.09-4.04-3.07-7.11-7.18-7.39-.52-.04-1.04-.06-1.66-.1ZM174.85,200.77c-.79,1.28-1.47,2.36-2.11,3.4,2.21.95,4.16,1.8,6.6,2.85-1.61-2.24-2.96-4.12-4.49-6.24ZM208.32,190.19c1.85-.58,3.51-1.11,5.23-1.65-.77-1.56-1.43-2.9-2.2-4.46-1.08,2.18-2,4.03-3.03,6.12ZM163.86,154.11c.23.1.47.19.7.29,1.23-1.29,2.45-2.58,3.91-4.11h-5.39c.29,1.41.54,2.62.78,3.82Z"/>
      <path class="cls-1" d="M71.5,226.81c4,6.23,1.93,12.37-1.81,15.43-.61.5-1.23,1.22-1.93,1.34-4.6.82-8.82,3.38-13.69,2.97-5.83-.49-10.55-5.3-11.06-11.13-.08-.89-.64-1.96-1.32-2.54-4.21-3.59-5.19-8.68-2.52-13.91,2.33-4.56,8.01-7.27,12.82-5.83,1.69.51,2.6.18,3.84-.98,3.74-3.51,10.48-3.23,14.61.4,4.3,3.79,4.69,8.95,1.07,14.24ZM48.53,231.74c-1.56,6.56,2.33,11.58,8.17,10.26,2.82-.63,5.38-2.28,8.41-2.45.66-.04,1.37-.76,1.91-1.31,3.29-3.38,2.72-8.42-1.24-11.35-.66-.49-1.36-.92-2.25-1.52,4.33-.61,6.09-2.06,6.25-4.93.17-3.02-1.65-5.85-4.54-6.4-1.55-.3-3.58-.39-4.8.38-1.77,1.12-3.01,3.09-4.52,4.75-2.13-2.43-5.04-3.73-8.7-2.15-3.02,1.3-4.98,4.19-4.86,7.23.15,4.04,2.58,6.27,6.17,7.49Z"/>
      <path class="cls-1" d="M24.2,218.08c-2.02.04-3.57-1.52-3.57-3.61,0-1.97,1.44-3.47,3.39-3.52,2-.06,3.52,1.47,3.57,3.61.04,1.95-1.44,3.49-3.39,3.53Z"/>
      <path class="cls-1" d="M103.78,247.66c1.95,0,3.5,1.62,3.53,3.69.03,1.92-1.44,3.37-3.45,3.41-2.15.05-3.73-1.43-3.68-3.43.04-1.97,1.72-3.67,3.6-3.67Z"/>
      <path class="cls-1" d="M242.68,260.39c.05,1.93-1.46,3.43-3.46,3.43-1.85,0-3.28-1.4-3.35-3.29-.07-1.94,1.42-3.58,3.29-3.64,1.74-.05,3.47,1.67,3.51,3.5Z"/>
      <path class="cls-1" d="M141.87,250.96c1.92.04,3.48,1.66,3.38,3.5-.1,1.9-1.52,3.36-3.29,3.37-1.87.01-3.39-1.59-3.35-3.54.04-1.92,1.46-3.37,3.26-3.33Z"/>
      <path class="cls-1" d="M256.75,235.98c1.68.14,2.69,1.22,2.81,3.03.11,1.65-1.47,3.22-3.12,3.25-1.72.03-3.06-1.35-3.11-3.21-.04-1.68,1.44-3.1,3.42-3.07Z"/>
      <path class="cls-1" d="M272.98,250.34c-.26,1.68-1.04,2.99-2.93,3.06-1.84.06-2.95-.94-3.08-2.82-.12-1.79,1.27-3.35,2.94-3.25,1.83.1,2.81,1.19,3.07,3.02Z"/>
      <path class="cls-1" d="M287.56,224.06c.15-1.55.93-2.78,2.71-2.82,1.56-.04,2.7.74,2.85,2.48.14,1.7-1.08,3.21-2.65,3.29-1.45.07-2.85-1.29-2.91-2.95Z"/>
      <path class="cls-1" d="M19.19,228.93c.97,1.28,1.95,2.01,1.92,2.71-.03.72-1.04,1.4-1.62,2.1-.68-.63-1.79-1.17-1.93-1.9-.13-.66.8-1.52,1.62-2.9Z"/>
      <path class="cls-1" d="M89.3,225.34c.76,1.34,1.57,2.11,1.46,2.74-.12.69-1.06,1.23-1.65,1.84-.58-.64-1.55-1.25-1.62-1.94-.06-.63.87-1.35,1.8-2.64Z"/>
      <path class="cls-1" d="M203.78,256.27c-.75-1.09-1.57-1.76-1.53-2.37.04-.56,1.13-1.59,1.52-1.48.7.19,1.55.98,1.71,1.66.11.47-.87,1.18-1.7,2.19Z"/>
      <path class="cls-1" d="M79.53,257.89c-.79-1.26-1.6-1.99-1.5-2.55.1-.59,1.08-1.03,1.68-1.53.45.54,1.27,1.07,1.27,1.61,0,.63-.7,1.27-1.45,2.47Z"/>
      <path class="cls-1" d="M160.81,266.4c-1.09.8-1.86,1.71-2.25,1.57-.72-.26-1.21-1.13-1.79-1.75.57-.52,1.11-1.4,1.72-1.45.57-.04,1.21.8,2.32,1.63Z"/>
      <path class="cls-1" d="M105.26,233.7c.65.96,1.41,1.58,1.34,2.11-.07.57-.91,1.04-1.41,1.55-.52-.58-1.31-1.09-1.46-1.76-.09-.41.8-1.04,1.53-1.9Z"/>
      <path class="cls-1" d="M295.18,199.74c-.95.62-1.69,1.43-2.07,1.28-.61-.23-.99-1.09-1.47-1.68.54-.42,1.1-1.18,1.63-1.15.54.02,1.05.81,1.92,1.55Z"/>
    </g>
  </g>
</svg>
