<?xml version="1.0" encoding="UTF-8"?>
<svg id="Ebene_1" data-name="Ebene 1" xmlns="http://www.w3.org/2000/svg" viewBox="0 0 302.18 300">
  <defs>
    <style>
      .cls-1 {
        stroke-width: 0px;
        fill: white;
      }
    </style>
  </defs>
  <path class="cls-1" d="M151.3,95.95c-35.49-.62-70.89-2.61-105.02-13.38-11.41-3.61-22.81-8.6-32.84-15.12-16.59-10.77-16.11-25.28.13-36.74,14.69-10.38,31.6-15.38,48.86-19.07C108.19,1.84,154.36.74,200.78,5.45c24.67,2.5,48.99,6.63,71.94,16.53,6.49,2.8,12.87,6.38,18.4,10.78,13.29,10.6,13.66,23.53-.36,33.15-10.41,7.15-22.43,12.68-34.47,16.53-34.07,10.91-69.5,12.88-104.99,13.51ZM145.12,69.5c28-1.75,50.62-2.47,73.06-4.84,12.87-1.36,25.56-5.05,38.14-8.4,2.9-.78,5.03-4.48,7.51-6.83-2.41-2.41-4.43-6.09-7.3-6.99-9.94-3.12-20.06-6.28-30.33-7.61-50.03-6.45-100.16-6.48-150.17.03-10.73,1.4-21.23,4.97-31.63,8.2-2.37.74-5.11,4.07-5.4,6.5-.21,1.78,2.91,5.04,5.19,5.88,7.33,2.69,14.83,5.69,22.47,6.54,27.84,3.1,55.77,5.4,78.44,7.51h.01Z"/>
  <path class="cls-1" d="M53.57,101.41c-31.52,57.16-10.89,116.49,25.69,145.8,39.35,31.54,98.1,33.65,138.25,4.46,23.62-17.18,39.05-39.97,44.89-68.74,5.79-28.57,1.29-55.77-13.67-81.42,9.01-2.91,17.31-5.6,26.22-8.47,8.59,13.98,13.42,29.09,15.85,45.04,11.72,77.35-40.27,147.86-117.92,160.02-70.65,11.06-138.58-32.18-157.73-101.25-9.24-33.32-6.15-66.01,8.82-97.45,2.42-5.08,4.83-6.79,10.28-4.51,6.12,2.57,12.61,4.28,19.32,6.5h0Z"/>
  <path class="cls-1" d="M146.44,244.49c-21.59,0-43.2-9.15-61.27-26.88-9.03-8.87-6.25-22.06,5.7-24.64,4.13-.89,10.37,1.72,13.73,4.86,16.59,15.54,35.6,21.58,57.64,17.53,12.46-2.29,23.08-8.33,32.21-17.3,3.99-3.92,8.33-7.43,14.48-5.4,11.63,3.85,14.4,16.36,5.28,25.18-17.97,17.4-39.33,26.58-67.76,26.65Z"/>
  <path class="cls-1" d="M167.22,163.59c.98-19.08,13.24-34.63,28.17-37.97,8.2-1.84,14.99,1.23,20.73,6.17,9.43,8.08,14.55,18.56,15.16,30.88.1,2-1.32,4.06-2.05,6.09-2.22-.92-4.79-1.4-6.59-2.81-4.03-3.16-7.39-7.17-11.55-10.12-8.24-5.84-15.21-5.86-23.45-.12-3.99,2.79-7.25,6.57-11.11,9.57-2,1.55-4.62,2.36-6.96,3.51-1.05-2.3-2.1-4.6-2.36-5.16h.01Z"/>
  <path class="cls-1" d="M71.1,164.42c.67-19.33,13.06-35.5,28.21-38.82,8.11-1.79,14.91,1.21,20.7,6.21,9.65,8.35,14.59,19.17,15.16,31.77.09,1.77-1.19,5.01-2.19,5.14-1.93.27-4.51-.7-6.12-2.01-4.16-3.38-7.6-7.65-11.91-10.76-8.16-5.91-15.18-5.89-23.42-.08-4.17,2.95-7.57,6.94-11.6,10.11-1.82,1.42-4.64,3.17-6.37,2.67-1.55-.46-2.23-3.8-2.44-4.23h-.01Z"/>
</svg>
