<?xml version="1.0" encoding="UTF-8"?>
<svg id="Ebene_1" data-name="Ebene 1" xmlns="http://www.w3.org/2000/svg" viewBox="0 0 299.92 300">
  <defs>
    <style>
      .cls-1 {
        stroke-width: 0px;
        fill: #BCC03F;
      }
    </style>
  </defs>
  <g id="RMCH01.tif">
    <path class="cls-1" d="M292.89,300h-24.03c-.84-.17-1.68-.46-2.53-.51-26.06-1.59-50.78-8.15-74.02-20.08-2.24-1.15-4.28-1.38-6.7-.9-15.38,3.1-30.86,4.58-46.58,3.43-32.83-2.39-62.35-13.46-87.54-34.64C15.36,216.94-2.89,178.27.37,130.58c2.09-30.5,13.98-57.21,34.46-79.66C69.68,12.73,113.54-3.57,164.78.65c31.68,2.61,59.99,14.49,84.39,35,25.69,21.61,42.35,48.72,48.49,81.95.97,5.26,1.52,10.6,2.26,15.9v15.24c-.63,4.82-1.09,9.67-1.93,14.45-5.28,29.83-18.78,55.34-40.48,76.48-1.46,1.42-1.62,2.42-.65,4.21,8.81,16.25,21.29,28.95,36.8,38.87,2.4,1.54,4.19,4.05,6.25,6.11v4.69c-1.4,3.18-3.4,5.71-7.03,6.45ZM132.27,176.39c0,11.81-.1,23.62.03,35.43.11,10.1,7.86,17.82,17.57,17.79,9.6-.03,17.42-7.58,17.49-17.57.17-23.62.09-47.24.03-70.86-.01-5.11-1.88-9.58-5.76-12.98-5.57-4.89-12-6.1-18.78-3.12-6.88,3.02-10.46,8.65-10.54,16.18-.13,11.71-.03,23.42-.03,35.14ZM132.28,79.03c.03,9.58,7.95,17.5,17.53,17.51,9.56.01,17.52-7.89,17.59-17.47.07-9.64-8.06-17.75-17.69-17.67-9.57.09-17.46,8.06-17.42,17.62Z"/>
  </g>
</svg>
