<?xml version="1.0" encoding="UTF-8"?>
<svg id="Ebene_1" data-name="Ebene 1" xmlns="http://www.w3.org/2000/svg" viewBox="0 0 302.18 300">
  <defs>
    <style>
      .cls-1 {
        stroke-width: 0px;
        fill: white;
      }
    </style>
  </defs>
  <g id="_5IrVnj.tif" data-name="5IrVnj.tif">
    <path class="cls-1" d="M302.18,100.74v13.56c-.17.66-.43,1.31-.5,1.98-.88,8.66-3.14,16.97-6.3,25.05-7.67,19.58-19.6,36.45-33.48,52-30.51,34.18-66.71,61.38-105.55,85.29-3.52,2.17-7.01,2.04-10.55-.12-32.85-19.99-63.66-42.66-91.12-69.67-16.96-16.68-32.23-34.72-43-56.14C-4.76,119.98-4.2,87.67,15.59,56.63c13.79-21.63,33.74-34.8,59.63-37.08,27.46-2.42,49.87,8.17,67.66,28.89,2.98,3.47,5.51,7.32,8.39,11.18.5-.69.91-1.32,1.37-1.91,3.63-4.63,6.83-9.69,10.97-13.82,21.75-21.72,47.72-30.17,77.6-21.56,30.28,8.72,48.41,30.13,57.33,59.72,1.82,6.05,2.46,12.46,3.64,18.7Z"/>
  </g>
</svg>
