<svg width="292" height="373" viewBox="0 0 292 373" fill="white" xmlns="http://www.w3.org/2000/svg">
<path d="M19.5708 143.077C15.941 158.586 17.6743 173.007 26.3694 186.033C35.5783 199.824 48.7914 207.439 65.2646 209.137C88.4788 211.533 106.661 202.066 121.2 184.643C125.175 179.876 128.445 174.508 132.002 169.394C133.188 167.687 134.153 165.815 135.421 164.175C141.423 156.416 152.067 156.782 157.545 165.012C160.959 170.14 163.873 175.609 167.431 180.626C175.685 192.253 186.142 201.248 199.777 205.996C223.865 214.376 252.832 208.709 267.72 182.223C274.313 170.496 275.921 157.753 272.824 144.539C272.752 144.232 272.704 143.919 272.599 143.351C278.072 142.976 283.397 142.043 287.958 146.363C293.153 151.274 293.402 158.595 288.347 163.627C287.732 164.243 287.06 165.142 287.017 165.941C285.73 191.074 265.454 214.236 240.454 221.158C233.142 223.183 225.743 224.27 218.186 224.092C216.039 224.044 215.492 224.761 215.406 226.791C215.257 230.307 214.685 233.804 214.479 237.321C214.426 238.187 214.849 239.375 215.478 239.928C217.883 242.035 219.708 244.445 220.817 247.485C221.081 248.206 222.223 248.817 223.078 249.072C230.837 251.386 235.629 259.756 233.132 267.217C232.085 270.334 230.645 273.268 229.737 276.505C228.451 281.099 224.667 283.827 219.895 284.635C218.056 284.948 216.923 285.972 215.487 286.968C211.785 289.541 211.421 293.159 210.95 297.108C208.828 315.007 206.59 332.897 204.199 350.762C203.83 353.523 202.452 356.15 201.487 358.993C204.958 359.199 208.684 359.291 212.381 359.671C220.965 360.551 229.536 361.547 238.106 362.567C239.354 362.716 240.598 363.163 241.769 363.649C242.278 363.861 242.994 364.582 242.927 364.943C242.821 365.501 242.202 366.256 241.669 366.391C238.73 367.136 235.777 367.945 232.781 368.315C209.971 371.124 187.059 372.245 164.089 372.784C140.472 373.337 116.878 372.842 93.3329 371.148C81.7859 370.316 70.2916 368.676 58.7829 367.334C57.4529 367.18 56.1374 366.699 54.8843 366.203C54.3801 366.006 53.7223 365.357 53.7271 364.919C53.732 364.472 54.3945 363.764 54.8891 363.635C57.8226 362.889 60.7562 362.004 63.7474 361.677C72.8027 360.681 81.8867 359.921 90.9563 359.07C91.2636 359.041 91.5661 358.959 91.7053 358.935C90.745 355.731 89.4199 352.648 88.9302 349.435C86.9664 336.452 85.262 323.425 83.4615 310.418C83.4087 310.024 83.3367 309.629 83.2934 309.23C82.9333 305.762 81.6994 303.775 77.6856 302.808C68.3279 300.557 64.0787 292.293 66.6858 283.168C66.8731 282.514 66.7962 281.58 66.4602 281.003C59.5367 269.117 64.8373 258.424 78.5018 256.778C78.7274 256.75 78.9435 256.639 79.5244 256.451C78.569 245.845 77.6039 235.185 76.6053 224.097C75.0064 224.097 73.3692 224.107 71.732 224.097C56.8192 224.006 43.0491 219.922 31.0315 211.105C16.0851 200.142 6.67457 185.687 5.23418 166.691C5.15736 165.652 4.5524 164.445 3.8082 163.709C0.140018 160.091 -0.935475 155.829 0.831397 150.99C2.52625 146.343 6.66496 143.25 11.5383 143.096C14.1598 143.015 16.7861 143.082 19.5708 143.082V143.077ZM121.934 360.503C120.748 351.195 122.251 342.474 119.692 334.013C119.121 332.132 119.068 330.063 118.957 328.072C117.896 308.792 116.902 289.503 115.832 270.223C115.016 255.581 114.137 240.943 113.225 226.305C113.119 224.631 113.753 223.929 115.179 223.039C119.913 220.095 124.445 216.824 129.04 213.659C129.779 213.149 130.447 212.543 131.33 211.841C132.195 244.06 133.044 275.842 133.894 307.657C135.181 307.864 136.357 308.191 137.534 308.201C138.249 308.205 139.233 307.946 139.646 307.436C145.489 300.268 155.5 299.648 162.351 305.969C163.225 306.772 164.694 307.291 165.9 307.306C169.779 307.359 173.298 308.254 176.501 310.51C187.136 317.994 186.756 334.152 176.453 339.391C175.944 339.65 175.613 340.41 175.372 341.012C174.379 343.494 173.462 346.005 172.501 348.497C172.276 349.079 171.762 349.627 171.747 350.199C171.675 353.552 171.714 356.905 171.714 360.57C174.825 359.262 177.869 357.627 181.115 356.703C186.075 355.289 187.822 352.552 188.005 347.217C188.634 328.88 189.887 310.567 191.01 292.25C191.188 289.335 190.477 287.237 188.322 285.087C182.099 278.877 181.547 269.16 186.535 262.185C186.972 261.574 187.073 260.415 186.838 259.669C184.687 252.848 186.939 245.7 192.595 241.429C193.243 240.938 193.877 239.986 193.925 239.206C194.318 233.294 194.515 227.368 194.885 221.451C194.986 219.835 194.51 219.123 192.931 218.527C179.679 213.514 168.655 205.375 159.874 194.249C156.7 190.228 153.796 186 150.646 181.959C147.424 177.822 144.299 177.918 141.139 182.137C139.939 183.739 138.859 185.427 137.716 187.072C127.936 201.109 115.822 212.326 99.6034 218.512C98.1342 219.075 97.7165 219.85 97.8029 221.346C98.3407 230.865 98.8928 240.39 99.2337 249.914C99.3201 252.324 100.026 253.719 102.182 254.994C111.083 260.251 113.402 269.093 108.654 278.333C108.361 278.901 108.534 279.954 108.875 280.575C113.177 288.411 111.103 297.56 103.872 302.775C103.248 303.227 102.729 304.266 102.719 305.04C102.686 307.195 102.936 309.355 103.089 311.515C104.045 325.022 104.986 338.53 106.004 352.037C106.056 352.754 106.594 353.783 107.185 354.052C111.818 356.179 116.523 358.156 121.939 360.498L121.934 360.503ZM143.252 323.387C142.969 322.545 142.594 321.809 142.479 321.035C141.74 316.2 135.675 314.853 131.782 318.014C129.026 320.25 127.998 323.295 127.806 326.687C127.489 332.233 130.62 337.13 135.733 339.217C140.683 341.238 145.489 339.992 149.34 335.706C149.657 335.355 150.051 335.076 150.583 334.604C149.34 341.267 150.598 344.639 154.842 346.495C158.659 348.165 163.014 347.058 165.376 343.816C168.022 340.189 167.398 337.409 162.721 332.016C170 333.253 173.62 332.17 175.161 328.313C176.736 324.363 175.329 319.75 171.776 317.225C169.654 315.714 167.167 315.267 164.944 316.296C162.86 317.258 161.165 319.072 159.519 320.347C160.09 315.887 158.491 312.376 154.866 310.639C152.077 309.302 148.773 309.73 146.949 311.986C143.305 316.489 145.355 320.332 148.98 323.983C146.877 323.762 145.139 323.584 143.247 323.387H143.252ZM92.1902 279.546C101.029 275.943 103.224 273.566 102.595 268.799C101.994 264.254 97.7213 260.242 92.9488 259.828C90.5194 259.616 88.1427 260.165 86.7456 262.219C85.4684 264.095 84.7531 266.361 83.812 268.41C83.4279 268.054 82.943 267.515 82.3716 267.092C79.6829 265.095 75.8851 265.095 73.6957 267.058C71.3863 269.131 70.8965 272.624 72.5962 275.63C74.2718 278.598 76.8069 280.373 80.2302 280.787C80.7104 280.844 81.1857 280.926 81.9491 281.037C80.2927 281.83 78.9387 282.336 77.7384 283.086C75.1457 284.707 73.979 287.218 74.5599 289.777C75.2321 292.731 77.143 294.544 80.067 295.112C83.1878 295.718 85.8813 294.602 88.258 292.615C88.8053 292.158 89.3239 291.658 89.852 291.177C90.0489 291.302 90.2409 291.427 90.4378 291.552C89.5399 293.957 88.6421 296.367 87.749 298.763C93.0449 300.697 100.175 297.522 102.052 292.221C102.974 289.623 102.892 287.035 101.702 284.515C99.9587 280.825 96.7082 279.623 92.1902 279.536V279.546ZM203.638 263.354C195.058 264.239 191.894 266.476 191.51 271.666C191.145 276.602 195.255 281.835 200.598 283.235C204.785 284.332 208.665 282.504 210.167 279.166C209.001 276.659 208.002 274.509 206.999 272.359C208.468 272.903 209.294 273.783 210.263 274.456C216.539 278.819 221.46 276.861 222.91 269.478C223.198 268.001 223.241 266.361 223.937 265.095C225.608 262.065 225.047 259.616 222.007 258.024C219.079 256.49 216.308 257.182 213.562 258.717C214.066 250.145 211.934 246.316 206.274 245.426C201.578 244.69 196.513 247.927 195.303 252.435C194.03 257.187 196.565 260.66 203.633 263.349L203.638 263.354ZM137.913 349.117V361.225H155.783V355.76C149.719 354.341 149.124 353.976 145.043 349.54C144.678 349.141 144.02 348.79 143.502 348.795C141.605 348.819 139.713 349.002 137.908 349.117H137.913Z" fill="white"/>
<path d="M257.534 114.533C262.428 119.013 266.455 123.684 267.97 128.034C266.34 126.672 263.421 124.394 260.693 121.909C252.928 114.831 244.046 109.929 233.524 108.869C227.274 108.241 220.923 108.505 214.614 108.505C164.289 108.505 113.958 108.543 63.6323 108.538C49.3481 108.538 37.9973 114.792 28.3626 124.801C26.7281 126.499 25.1702 128.264 23.5788 130L23.0228 129.66C25.0408 126.096 27.054 122.538 29.2158 118.715C28.7748 118.24 28.1325 117.555 27.495 116.864C18.5841 107.181 18.819 91.7336 28.3434 83.475C30.9367 81.2258 32.3028 78.9429 33.2375 75.6625C37.4701 60.8576 55.0714 54.6469 68.9291 62.8047C69.6049 63.2028 70.2664 63.6296 71.1771 64.1907C71.575 61.8551 71.8243 59.6874 72.3276 57.5772C75.0598 46.0335 81.828 37.7126 92.5604 32.7105C94.1039 31.9911 94.8421 31.0847 95.2975 29.4972C99.7601 13.925 110.104 4.32837 125.764 0.947262C143.72 -2.93262 162.309 5.37387 172.078 20.9605C172.667 21.9005 173.271 22.8309 173.823 23.699C176.958 22.8981 179.906 21.8718 182.945 21.4113C198.978 18.975 213.996 28.0009 219.47 43.271C219.945 44.5995 220.367 45.3716 222.035 45.3812C231.746 45.434 239.286 49.7791 245.259 57.2751C246.169 58.4165 247.607 59.4284 248.997 59.8409C264.312 64.4161 272.868 79.8589 269.125 96.2897C267.447 103.647 263.766 109.733 257.539 114.538L257.534 114.533ZM127.849 49.0261C127.816 49.3043 127.777 49.5824 127.744 49.8606C123.022 49.381 118.291 49.0021 113.584 48.4074C106.049 47.4483 99.0651 48.3163 94.1566 54.8435C89.1524 61.5002 89.0277 68.8523 91.9085 76.4443C96.6396 88.9232 113.738 97.1433 125.922 95.0187C137.891 92.9277 144.473 83.4367 141.784 71.5812C140.849 67.4519 138.639 63.6104 137.359 60.4835C139.363 61.4379 142.177 63.1692 145.23 64.1524C154.596 67.1546 162.937 61.577 164.068 51.8125C164.528 47.8271 163.92 43.9808 162.333 40.3359C158.45 31.406 152.051 24.8068 143.342 20.5289C137.446 17.6322 131.325 16.7785 125.05 19.4306C118.991 21.9916 114.811 28.0537 115.027 34.4802C115.252 41.1513 119.169 45.2853 124.997 47.8895C125.932 48.3067 126.895 48.6616 127.845 49.0453L127.849 49.0261ZM221.153 89.8776C221.258 89.9447 221.359 90.0166 221.464 90.0838C221.081 90.9087 220.712 91.7384 220.309 92.5489C218.895 95.4168 218.372 98.3999 218.746 101.608C218.957 103.416 219.6 103.977 221.474 103.867C228.846 103.436 236.161 103.618 243.092 106.726C243.576 106.941 244.544 106.773 244.937 106.404C249.328 102.323 252.41 97.5558 252.971 91.3691C253.887 81.2018 245.968 75.111 236.496 78.8134C235.461 79.2211 234.507 79.8445 233.457 80.2138C230.993 81.0771 228.491 81.8444 226.008 82.6501C227.025 81.1011 228.314 80.0172 229.392 78.7559C231.506 76.2764 233.131 73.5475 232.642 70.0753C231.847 64.4593 227.015 60.4547 220.812 60.2437C214.888 60.0423 210.137 63.9318 208.982 69.9746C208.728 71.2935 208.599 72.6363 208.407 73.984C204.572 72.809 201.61 74.0943 200.445 77.859C199.808 79.9213 199.568 82.3096 199.913 84.4294C201.413 93.6231 211.24 98.4286 218.789 91.7815C219.547 91.1149 220.362 90.5106 221.153 89.8728V89.8776ZM203.47 49.6975C202.343 47.5298 201.442 45.2901 200.114 43.343C196.553 38.125 188.783 36.1443 183.208 38.8013C182.063 39.348 181.708 39.9235 181.789 41.3431C182.063 46.0239 182.556 50.7958 181.957 55.4046C180.299 68.1713 173.976 77.72 161.552 82.5302C161.063 82.7173 160.631 83.053 160.21 83.2928C163.138 93.6519 176.905 98.6588 185.643 92.6352C185.614 92.429 185.61 92.194 185.538 91.9781C181.751 80.6934 184.536 70.3439 193.456 62.541C193.869 62.1813 194.386 61.7976 194.545 61.3228C196.112 56.4885 199.448 52.9971 203.465 49.6927L203.47 49.6975ZM78.7938 93.6135C76.3828 88.0407 73.8135 82.089 71.3257 76.3387C69.8446 78.2763 68.1429 80.5064 66.0434 83.2544C65.3628 76.8807 62.7935 72.785 56.7203 72.1423C52.3296 71.6771 48.2312 74.406 46.6446 78.3914C44.756 83.1297 45.9304 85.8922 52.4494 91.4794C51.0881 91.3211 50.1054 91.23 49.1324 91.0861C47.4019 90.8271 45.6811 90.3715 43.9411 90.2852C39.6702 90.079 36.3005 92.6592 35.4568 96.8268C34.3735 102.174 35.941 106.726 39.8188 110.466C46.2084 106.821 52.6747 103.867 60.1092 103.723C60.8282 103.709 61.7533 102.908 62.1991 102.227C64.0781 99.3351 66.3694 96.8556 69.672 95.7909C72.8021 94.7838 76.0856 94.2418 78.7938 93.6135Z" fill="white"/>
<path d="M83.4393 119.155C91.1202 119.155 98.8106 118.996 106.487 119.213C111.341 119.348 115.927 120.844 120.108 123.417C128.135 128.354 131.582 136.612 129.318 145.768C126.943 155.368 121.613 163.375 115.446 170.846C107.371 180.629 97.9791 188.849 85.9147 193.274C62.8144 201.754 37.7386 189.751 31.0095 166.922C27.8804 156.304 28.0294 145.667 34.1578 136.004C40.9302 125.328 51.2643 120.255 63.521 119.266C70.1203 118.73 76.7966 119.169 83.4393 119.169C83.4393 119.165 83.4393 119.16 83.4393 119.155ZM85.8041 134.682C84.9101 134.682 84.4487 134.604 84.0209 134.691C76.0516 136.371 68.0728 138.002 60.1275 139.793C54.9076 140.97 49.7069 142.264 44.5639 143.726C41.2907 144.658 40.041 146.97 40.8725 149.677C41.7088 152.399 44.3717 153.794 47.419 152.945C48.712 152.583 49.9473 151.96 51.1537 151.347C58.1328 147.805 65.0542 144.132 72.0862 140.7C76.4361 138.577 80.9543 136.791 85.8041 134.672V134.682ZM73.2782 179.514C73.4176 179.775 73.5522 180.031 73.6916 180.291C84.5736 174.456 95.4605 168.626 106.342 162.791C106.218 162.549 106.088 162.313 105.963 162.072C94.2492 166.338 83.5739 172.569 73.2831 179.514H73.2782Z" fill="white"/>
<path d="M207.599 119.369C214.655 119.369 221.763 118.8 228.756 119.485C244.235 120.994 258.567 130.173 262.126 146.781C267.226 170.587 249.508 196.239 221.864 195.998C207.696 195.873 195.901 190.338 185.653 180.957C177.639 173.624 171.094 165.091 166.235 155.415C164.255 151.477 162.757 147.051 162.17 142.698C160.942 133.567 166.475 125.381 175.457 121.784C180.447 119.784 185.677 119.104 190.994 119.036C196.527 118.964 202.066 119.022 207.599 119.022V119.374V119.369ZM227.143 135.326C227.143 135.254 227.133 135.187 227.128 135.114C221.546 136.117 215.941 136.985 210.397 138.147C200.761 140.171 191.157 142.351 181.554 144.534C177.884 145.368 176.661 146.781 176.839 149.543C177.027 152.484 179.324 154.866 182.46 155.126C183.707 155.232 185.041 155.107 186.24 154.765C187.844 154.307 189.404 153.627 190.897 152.875C195.111 150.749 199.229 148.42 203.486 146.381C211.336 142.616 219.254 139.005 227.147 135.326H227.143ZM219.008 183.565C223.319 182.876 235.388 176.763 238.036 174.034C231.169 175.991 224.98 179.154 219.008 183.565Z" fill="white"/>
<path d="M68.9951 343C63.8349 340.177 59.2476 337.704 54.7184 335.131C54.2087 334.843 53.8641 334.024 53.7282 333.391C47.1845 303.653 40.6553 273.911 34.1602 244.159C32.7476 237.694 31.4369 231.21 30.0971 224.73C30.0048 224.289 30.0437 223.82 30 223C31.2087 223.752 32.1019 224.443 33.1019 224.898C37.1893 226.772 41.2233 228.809 45.4563 230.289C47.2816 230.932 47.9514 231.679 48.2864 233.414C52.6408 256.054 57.0874 278.675 61.4466 301.31C63.8932 314 66.2379 326.705 68.6068 339.41C68.7816 340.335 68.8155 341.284 69 343H68.9951Z" fill="white"/>
<path d="M262.995 224C261.977 228.907 260.863 234.335 259.72 239.753C253.173 270.805 246.627 301.862 240.042 332.904C239.874 333.688 239.5 334.71 238.89 335.073C234.519 337.677 230.062 340.133 225 343C225.231 341.16 225.327 339.961 225.543 338.786C229.092 319.545 232.665 300.309 236.215 281.068C239.168 265.033 242.084 248.994 245.057 232.963C245.186 232.266 245.513 231.258 246.027 231.038C251.699 228.601 257.429 226.289 263 224.005L262.995 224Z" fill="white"/>
<path d="M133 121.005H159C156.715 124.148 154.392 127.334 151.731 130.993C148.529 130.993 144.607 131.022 140.685 130.959C140.163 130.949 139.448 130.642 139.168 130.228C137.052 127.164 135.019 124.04 133.005 121L133 121.005Z" fill="white"/>
<path d="M174.704 308C171.65 306.152 169.178 304.679 166.735 303.167C165.627 302.483 164.671 301.429 163.475 301.039C158.998 299.576 158.875 296.519 159.042 292.485C159.86 272.778 160.337 253.061 160.82 233.344C160.992 226.321 160.85 219.288 160.85 212.265C161.145 212.178 161.441 212.087 161.736 212C162.445 212.582 163.11 213.242 163.878 213.743C168.784 216.91 173.659 220.121 178.673 223.124C179.811 223.808 180.062 224.395 179.988 225.541C179.077 239.703 178.2 253.865 177.324 268.027C176.575 280.109 175.836 292.192 175.088 304.274C175.029 305.213 174.901 306.147 174.709 308H174.704Z" fill="white"/>
</svg>
