<?xml version="1.0" encoding="UTF-8"?>
<svg id="Ebene_1" data-name="Ebene 1" xmlns="http://www.w3.org/2000/svg" viewBox="0 0 302.18 300">
  <defs>
    <style>
      .cls-1 {
        stroke-width: 0px;
        fill: white;
      }
    </style>
  </defs>
  <path class="cls-1" d="M150.95,6.87c34.98,0,69.97.36,104.94-.13,22.67-.31,37.15,17.19,38.9,36.34.34,3.78.35,7.6.35,11.4.02,64.99,0,129.98.04,194.97,0,8.6-1.31,16.83-5.59,24.38-6.9,12.16-17.27,19.19-31.35,19.22-71.65.15-143.3.19-214.95-.03-15.15-.04-25.77-8.01-32.44-21.51-3.37-6.81-4.57-14.08-4.58-21.48-.11-66.68-.12-133.36-.01-200.04.02-13.11,3.72-24.94,13.83-34.16,7.04-6.42,15.35-8.98,24.65-8.98h106.22ZM150.58,129.52c11.62,0,23.24-.32,34.84.09,11.98.41,19.22-7.79,19.68-18.28.67-15.17.6-30.41.04-45.59-.42-11.63-8.55-18.56-20.23-18.57-23.02-.03-46.04-.03-69.06,0-11.17.02-19.07,7.54-19.24,18.74-.23,14.99-.23,29.98-.01,44.97.16,11.41,7.74,18.58,19.13,18.62,11.62.04,23.23,0,34.84.01h0ZM150.77,170.32c-11.51,0-23.02-.04-34.53.01-12.04.06-19.49,7.15-19.65,19.15-.2,14.68.04,29.36-.08,44.04-.08,10.02,7.92,19.53,19.8,19.35,22.91-.34,45.83-.3,68.75-.02,11.38.14,19.62-7.41,20.09-18.78.63-15.07.62-30.21,0-45.28-.43-10.42-7.53-18.92-19.83-18.55-11.5.36-23.02.08-34.53.07ZM269.01,68.05c-.12,0-.24-.02-.37-.03,0-3.27.11-6.56-.03-9.82-.3-7.23-4.26-10.99-11.51-11.03-4.54-.03-9.09-.03-13.63,0-7.19.03-11.32,3.78-11.58,11.01-.24,6.54-.23,13.11,0,19.64.22,6.56,4.06,10.75,9.98,10.98,5.59.22,11.2.18,16.8,0,4.85-.15,8.1-2.47,9.12-7.26.92-4.39.86-8.98,1.22-13.49h0ZM269.07,150.08c-.14-.01-.28-.02-.42-.04,0-3.27.1-6.55-.02-9.82-.26-7.21-4.25-11.03-11.47-11.08-4.54-.03-9.09-.03-13.63,0-7.12.04-11.26,3.59-11.6,10.63-.32,6.75-.29,13.52,0,20.27.27,6.45,4.07,10.47,9.9,10.69,5.69.22,11.41.23,17.11-.03,4.36-.2,7.93-2.29,8.76-6.86.83-4.53.95-9.18,1.38-13.78h0ZM269.02,232.07l-.37-.03c0-3.27.1-6.55-.02-9.82-.28-7.27-4.22-11.03-11.45-11.06-4.54-.02-9.09-.02-13.63,0-7.16.03-11.27,3.54-11.61,10.6-.32,6.75-.29,13.52-.01,20.27.27,6.59,4.16,10.53,10.2,10.7,5.48.16,10.99.15,16.47,0,4.91-.14,8.14-2.38,9.16-7.18.93-4.38.88-8.97,1.26-13.47h0ZM69.28,68.25h-.01c0-3.91.18-7.82-.04-11.72-.33-5.62-4.01-9.16-9.63-9.32-5.49-.16-10.99-.14-16.48,0-5.47.13-9.49,3.44-9.77,8.86-.41,7.89-.42,15.84-.02,23.73.28,5.59,4.28,8.89,9.94,9.03,5.38.14,10.78.15,16.16,0,5.88-.17,9.47-3.62,9.82-9.48.22-3.68.04-7.39.04-11.09ZM69.3,149.96c0-3.7.15-7.4-.04-11.09-.31-5.97-4.01-9.57-9.94-9.7-5.38-.11-10.78-.11-16.16,0-5.47.13-9.53,3.42-9.81,8.8-.42,7.89-.44,15.84-.04,23.73.29,5.64,4.23,8.92,9.89,9.07,5.38.15,10.78.15,16.16,0,6.02-.16,9.57-3.66,9.9-9.73.2-3.68.04-7.39.04-11.09h0ZM69.26,232.02h-.01c0-3.91.2-7.82-.05-11.72-.35-5.47-4.01-8.94-9.49-9.09-5.59-.15-11.2-.15-16.79,0-5.29.14-9.29,3.43-9.56,8.69-.41,7.99-.42,16.04,0,24.04.27,5.35,4.12,8.59,9.47,8.77,5.59.19,11.2.18,16.79.02,5.72-.17,9.26-3.59,9.61-9.31.23-3.79.04-7.6.04-11.4h0Z"/>
</svg>
