<?xml version="1.0" encoding="UTF-8"?>
<svg id="Ebene_1" data-name="Ebene 1" xmlns="http://www.w3.org/2000/svg" viewBox="0 0 302.18 300.47">
  <defs>
    <style>
      .cls-1 {
        stroke-width: 0px;
        fill: white;
      }
    </style>
  </defs>
  <g id="NQy8jg.tif">
    <g>
      <path class="cls-1" d="M157.28,0c7.54,1.83,15.46,2.73,22.54,5.65,26.87,11.09,43.24,31.16,48.24,59.93,5.56,31.93-10.12,64.49-39.05,80.01-28.16,15.11-56.2,13.56-82.46-4.71-21.08-14.67-32.19-35.64-32.67-61.31-.53-28.52,11.79-50.93,35.39-66.93,10.42-7.07,22.09-10.94,34.63-12.21.57-.06,1.12-.28,1.68-.42,3.9,0,7.8,0,11.7,0Z"/>
      <path class="cls-1" d="M150.73,299.43c-33.72-.29-64.59-10.23-91.83-30.54-15.98-11.92-29.38-26.42-39.78-43.55-1.56-2.57-2.29-5.15-.94-8.01,13.57-28.62,35.66-46.87,66.44-54.5,2.17-.54,4.4-.82,6.59-1.29,4.81-1.05,8.93.33,12.88,3.12,15.35,10.8,32.51,15.63,51.21,14.84,14.29-.6,28.09-4.01,39.57-12.48,8.83-6.51,17.27-6.03,26.7-3.39,25.84,7.24,45.28,22.71,59.12,45.52,6.11,10.07,6.36,10.43-.09,20.12-15.59,23.43-35.8,41.76-61.11,54.27-21.58,10.67-44.47,15.78-68.76,15.91Z"/>
    </g>
  </g>
</svg>
