<?xml version="1.0" encoding="UTF-8"?>
<svg id="Ebene_1" data-name="Ebene 1" xmlns="http://www.w3.org/2000/svg" viewBox="0 0 302.18 300">
  <defs>
    <style>
      .cls-1 {
        stroke-width: 0px;
        fill: white;
      }
    </style>
  </defs>
  <path class="cls-1" d="M200.44,134.08c.04,7.23-3.82,15.09-10.35,21.67-19.85,19.95-39.82,39.79-59.71,59.7-4.66,4.66-9.67,8.93-16.09,10.7-4.57,1.27-9.25,2.06-14.24,1.29-9.07-1.41-15.88-6.2-22.12-12.48-19.77-19.92-39.66-39.72-59.51-59.56-6.69-6.69-10.39-14.79-10.24-24.19.14-8.65,3.46-16.33,9.62-22.57,9.17-9.27,18.41-18.48,27.63-27.71,11.31-11.31,22.71-22.53,33.93-33.92,9.49-9.62,20.63-13.4,33.88-10.06,5.38,1.36,10.06,4.16,13.97,8.05,16.29,16.18,32.51,32.45,48.76,48.68,4.68,4.67,9.36,9.34,14.05,14.01,6.69,6.66,10.43,14.58,10.41,26.4ZM162.57,142.52c6.27.54,11.18-5.18,11.2-10.74.02-5.92-5.21-11.38-11.07-11.09-5.94.29-10.65,4.4-10.82,10.94-.17,6.5,5.87,11.51,10.69,10.89ZM93.62,190.52c-.18,6.76,6.13,10.92,11.39,10.43,7.2-.67,10.24-5.58,10.33-11.17.09-5.81-5.69-11.18-11.08-10.97-6.22.24-10.94,5.44-10.65,11.73h0ZM104.21,142.52c5.95.46,11.15-4.4,11.1-10.79-.04-6.17-4.09-10.7-10.79-10.99-5.53-.24-10.99,4.12-10.95,10.67.04,6.47,4.31,11.06,10.64,11.1h0ZM45.84,142.53c7.23.23,10.67-5.13,11.17-10.8.5-5.65-5.33-11.16-11.11-11.09-5.89.07-10.92,5.16-10.89,11.04.02,5.72,4.71,11.19,10.84,10.84ZM93.62,73.01c-.53,6.59,4.89,11.26,10.63,11.27,5.89.01,10.86-4.11,11.09-10.76.21-6.09-4.85-10.82-10.43-11.1-5.98-.3-11.7,4.78-11.29,10.58h0Z"/>
  <path class="cls-1" d="M221.31,263.09c-13.77,0-27.54.2-41.31-.06-10.11-.19-19.15-3.36-25.54-11.79-3.17-4.18-5.36-8.89-5.6-14.22-.25-5.53-.28-11.08-.19-16.61.02-1.27.65-2.83,1.54-3.73,16.57-16.67,33.23-33.25,49.86-49.86,6.28-6.27,11.37-13.41,13.48-22.09,1.79-7.35,2.97-14.89.58-22.44-.26-.83-.16-1.78-.31-2.65-.27-1.56.41-2.09,1.91-2.07,3.22.05,6.43.02,9.65.02,13.86.02,27.72-.19,41.57.13,9.58.23,16.82,5.2,22.17,12.94,3.72,5.39,4.91,11.66,4.94,18.01.15,27.61.15,55.23.02,82.84-.05,10.62-3.77,19.8-12.81,25.95-3.08,2.09-6.85,3.51-10.51,4.33-11.99,2.68-24.22.82-36.34,1.29-4.37.17-8.76.03-13.14.03h.02ZM232.13,190.04c0-5.92-5.24-11.3-11-11.26-5.51.03-11.44,5.85-11.04,11.33.46,6.33,4.79,10.79,11.01,10.85,6.18.06,11.03-4.78,11.03-10.92h0Z"/>
</svg>
