<?xml version="1.0" encoding="UTF-8"?>
<svg id="Ebene_1" data-name="Ebene 1" xmlns="http://www.w3.org/2000/svg" viewBox="0 0 302.18 300">
  <defs>
    <style>
      .cls-1 {
        stroke-width: 0px;
        fill: #433FC0;
      }
    </style>
  </defs>
  <g id="dqnCJK.tif">
    <g>
      <path class="cls-1" d="M144.32,285c-4.26-.51-8.53-.91-12.77-1.55-28-4.24-52.36-15.97-72.92-35.5-21.45-20.38-34.75-45.17-40.18-74.22-.4-2.15-.63-4.34-.97-6.69h33.65c10.35,44.15,36.67,73.01,81.57,82.24,30.9,6.35,58.91-2.01,84.27-22.58-1.19-.76-2.21-1.19-2.95-1.92-7.94-7.84-15.86-15.71-23.74-23.62-1.36-1.36-2.67-2.81-3.74-4.4-3.57-5.31-.52-11.97,5.84-12.88.78-.11,1.58-.1,2.37-.1,27.16,0,54.31-.04,81.47.07,2.27,0,4.79.56,6.72,1.67,1.46.85,2.18,2.99,3.23,4.56v88.07c-1.04,3.27-3.24,5.47-6.33,6.86h-4.22c-2.69-2.19-5.57-4.18-8.03-6.59-7.9-7.74-15.66-15.63-23.44-23.49-1.22-1.24-2.26-2.66-3.2-3.78-6.39,4.6-12.06,9.02-18.07,12.94-14.89,9.69-31.2,15.89-48.72,18.82-5.35.89-10.75,1.42-16.13,2.12h-13.71Z"/>
      <path class="cls-1" d="M158.03,15c4.26.51,8.53.91,12.77,1.55,28,4.24,52.36,15.97,72.92,35.5,21.45,20.38,34.75,45.17,40.18,74.22.4,2.15.63,4.34.97,6.69h-33.65c-10.35-44.15-36.67-73.01-81.57-82.24-30.9-6.35-58.91,2.01-84.27,22.58,1.19.76,2.21,1.19,2.95,1.92,7.94,7.84,15.86,15.71,23.74,23.62,1.36,1.36,2.67,2.81,3.74,4.4,3.51,5.22.64,11.76-5.58,12.84-.86.15-1.75.14-2.63.14-27.16,0-54.31.04-81.47-.06-2.27,0-4.79-.56-6.72-1.67-1.46-.84-2.18-2.99-3.23-4.56,0-29.36,0-58.71,0-88.07,1.04-3.27,3.24-5.47,6.33-6.86,1.23,0,2.46,0,3.69,0,2.4,1.73,5.07,3.19,7.16,5.24,8.98,8.79,17.79,17.75,26.67,26.64.66.66,1.35,1.28,1.78,1.69,6.05-4.35,11.67-8.73,17.62-12.61,14.9-9.71,31.22-15.91,48.75-18.85,5.35-.89,10.76-1.42,16.14-2.12,4.57,0,9.14,0,13.71,0Z"/>
    </g>
  </g>
</svg>
