<?xml version="1.0" encoding="UTF-8"?>
<svg id="Ebene_1" data-name="Ebene 1" xmlns="http://www.w3.org/2000/svg" viewBox="0 0 302.18 300.47">
  <defs>
    <style>
      .cls-1 {
        stroke-width: 0px;
        fill: white;
      }
    </style>
  </defs>
  <path class="cls-1" d="M151.39.01c81.61.68,147.49,68.13,146.72,151.18-.8,85.32-68.34,149.86-149.05,149.27C65.49,299.86.54,232.58,1.37,148.54,2.21,63.64,70.52-1.06,151.39.01ZM121.14,179.25c.64,1.35,1.12,2.37,1.6,3.38,1.62,3.39,4.35,5,8.04,5.12,6.21.2,9.95-3.84,10-11.1.08-10.55.04-21.09.02-31.65-.02-9.15-1.36-18.02-5.77-26.22-6.85-12.78-17.12-21.04-31.36-24.13-1.39-.3-2.74-.75-4.46-1.22.74-.92,1.2-1.46,1.63-2.03,5.72-7.42,10.51-15.28,11.43-24.9.51-5.34-2.11-8.74-7.46-10.05-4.08-1-7.91,1.08-9.86,5.46-1.19,2.69-2.2,5.46-3.38,8.16-3.46,7.96-8.76,14.22-16.5,18.42-5.89,3.19-12.28,4.15-18.74,5.08-3.92.56-6.86,2.46-8.31,6.34-1.31,3.52-.64,6.78,1.82,9.39,1.51,1.61,3.68,2.6,5.91,4.11-.35.68-.91,1.64-1.35,2.65-1.7,3.84-3.81,7.55-4.98,11.55-4.01,13.71-1.82,26.63,5.55,38.81.93,1.53,1.4,3.54,1.47,5.34.2,5.16-.02,10.34.11,15.5.15,5.98,3.78,9.8,9.22,9.97,5.52.17,9.17-3.29,9.82-9.31.12-1.1.19-2.19.29-3.43,16.1,5.62,31.09,4.51,45.24-5.24h0ZM199.81,93.72c-14.31,2.26-25.6,9.34-33.36,21.52-7.82,12.26-9.27,25.72-5.48,39.52,2.87,10.43,8.81,19.14,18.05,25.11,14.01,9.06,28.95,10.31,44.68,4.53.2,1.91.29,3.59.58,5.24.71,4.08,3.36,6.76,7.15,7.41,6.35,1.09,11.08-2.54,11.35-9.03.23-5.37-.06-10.76.16-16.14.08-1.78.69-3.72,1.61-5.24,10.22-16.87,10.3-33.8.54-50.86-.5-.87-1.02-1.73-1.58-2.71.69-.35,1.05-.58,1.43-.72,4.97-1.79,7.56-5.39,7.11-9.88-.5-4.96-3.84-8.21-9.08-8.94-2.91-.41-5.84-.8-8.71-1.45-11.05-2.52-19.55-8.54-24.73-18.81-2.03-4.03-3.58-8.3-5.6-12.34-1.97-3.95-5.74-5.48-9.75-4.34-4.79,1.37-7.84,4.98-7.03,9.45.82,4.5,2.02,9.07,3.94,13.19,2.29,4.89,5.53,9.33,8.69,14.5h.01ZM149.42,254.44c5.27-.87,10.54-1.72,15.82-2.6,15.03-2.51,26.57-11,36.64-21.82,3.6-3.87,3.38-10.15.09-13.55-3.75-3.87-8.4-3.92-13.19,0-3.49,2.86-6.69,6.09-10.32,8.74-17.03,12.43-41.34,12.22-57.94-.45-3.83-2.92-7.33-6.27-11.1-9.28-3.27-2.6-6.59-2.58-9.85-.25-5.59,3.99-6.02,10.29-.96,15.81,13.66,14.9,30.65,22.44,50.83,23.4h0Z"/>
  <path class="cls-1" d="M92.39,108.75c9.3-1.51,24.82,3.63,30.9,18.36,5.53,13.41,2.81,29.03-7.62,38.05-12.76,11.03-29.76,10.78-43.1.32-8.4-6.59-13.51-24.24-9.35-32.93,8.92,5.01,17.74,5.72,25.68-1.82,4.65-4.41,7.14-12,3.48-21.98h0Z"/>
  <path class="cls-1" d="M174.56,132.33c8.81,5.16,17.39,5.94,25.26-1,6.15-5.41,7.32-13.08,4.17-22.36,6.36-2.27,21.29,2.87,27.69,12.26,8.7,12.76,7.92,31.15-3.03,42.6-9.53,9.96-26,13.1-40.39,4.67-12.26-7.19-17.07-23.05-13.7-36.17h0Z"/>
</svg>
