<?xml version="1.0" encoding="UTF-8"?>
<svg id="Ebene_1" data-name="Ebene 1" xmlns="http://www.w3.org/2000/svg" viewBox="0 0 302.18 300">
  <defs>
    <style>
      .cls-1 {
        stroke-width: 0px;
        fill: white;
      }
    </style>
  </defs>
  <path class="cls-1" d="M150.78,231.96c-39.02,0-78.03-.15-117.05.07-19.59.11-32.47-14.69-32.63-31.66-.24-25.58-.11-51.15-.11-76.73,0-24.8-.22-49.6.17-74.4.27-16.72,13.06-31.07,32.16-31.06,74.16.07,148.31,0,222.47.07,6.62,0,13.28.23,19.87.89,12.14,1.23,22.56,13.33,24.18,25.01.76,5.45,1.23,10.99,1.24,16.49.1,45.29.16,90.57-.02,135.85-.04,10.43-2.94,20.04-10.98,27.52-6.13,5.7-13.48,7.92-21.58,7.93-39.24.06-78.48.03-117.72.03h0ZM30.23,199.04c1.41.09,2.48.23,3.56.23,77.91,0,155.82,0,233.74.07,2.82,0,3.52-.92,3.51-3.61-.07-47.05-.08-94.09.01-141.14,0-3.02-.98-3.67-3.8-3.67-77.69.07-155.38.07-233.07-.01-3.27,0-4.01,1.02-4,4.13.09,46.83.06,93.66.06,140.48v3.55h0Z"/>
  <path class="cls-1" d="M152.22,281.62c-29.84,0-59.66-.15-89.5.09-8.91.07-13.33-4.59-15.36-9.82-2.49-6.39-.5-14.69,4.57-19.14,3.33-2.93,7.35-3.42,11.56-3.42,33.41.01,66.82,0,100.22,0,25.81,0,51.62.03,77.43-.01,6.39-.01,11.51,1.93,14.81,7.72,3.62,6.34,2.25,16.17-3.09,21.09-3.18,2.93-6.99,3.54-11.15,3.53-22.24-.07-44.47-.03-66.71-.03h-22.79,0Z"/>
</svg>
