<?xml version="1.0" encoding="UTF-8"?>
<svg id="Ebene_1" data-name="Ebene 1" xmlns="http://www.w3.org/2000/svg" viewBox="0 0 299.92 300">
  <defs>
    <style>
      .cls-1 {
        stroke-width: 0px;
        fill: white;
      }
    </style>
  </defs>
  <g id="gX9xES.tif">
    <path class="cls-1" d="M147.38,7h5.84c6.98,1.94,10.7,6.88,13.41,13.37,10.26,24.57,20.87,48.99,31.23,73.52.91,2.14,2.11,2.86,4.27,3.05,26.85,2.36,53.69,4.79,80.53,7.18,4.33.39,8.79.89,11.76,4.3,2.28,2.63,3.7,6,5.5,9.04v5.84c-1.99,3.14-3.39,6.94-6.06,9.32-20.48,18.3-41.17,36.36-61.91,54.37-2.14,1.86-2.65,3.42-2.01,6.15,6.22,26.81,12.29,53.65,18.38,80.49,1.13,5,.36,9.68-2.78,13.84-5.13,6.77-13.89,8.11-21.96,3.29-23.48-14.02-46.96-28.04-70.37-42.16-2.12-1.28-3.58-1.33-5.72-.04-23.58,14.22-47.24,28.32-70.88,42.44-6.19,3.7-12.44,3.91-18.33-.43-5.78-4.25-7.52-10.21-5.96-17.11,6.08-26.84,12.17-53.68,18.39-80.49.61-2.63.06-4.16-1.95-5.91-20.8-18.09-41.51-36.27-62.21-54.47-5.24-4.61-7.2-10.43-5.05-17.12,2.1-6.52,6.83-10.35,13.72-10.99,27.43-2.56,54.87-5.05,82.32-7.48,2.62-.23,4.29-.82,5.45-3.58,10.25-24.38,20.81-48.63,30.99-73.04,2.71-6.5,6.42-11.44,13.41-13.39Z"/>
  </g>
</svg>
